classDiagram
    User --> Menu
    User o-- Order
    Menu "1"--"0..*" Item
    Item "0..*"--*"1"  Order
    Order "1"-->"1" Resto
    Resto "1"-->"1" Livreur
    Livreur "1"-->"1" User
    Item --> Resto
    
      class User {
        -id : int 
        -name : str
        -mail : str
        -phone : str
        -address : str

        
        +check menu()
        +order_request()
        
      }
      class Item {
        +id : 
        +name
        +description
        +price
        -quantity
        +availability

        +stock_amount()
      }
      class Menu {
        +item_list
        +id
        +name
        +display_list()

         -stock_gestion()
        
      }
      class Resto {
        +adress
        +name
        +phone
        +id
        
        -order_reception()
        -order_execution()
        -order_delivery()
       
      }
      class Livreur{
        + GPS
        + Name
        +id
        +vehicle

        -order_received()
        -order_delivered()
      }
      class Order{
        +command_status
        +command_size
        +id
        +name

        +restaurant_instructions()
        +remove item()
        +add item()
        +edit quantity
      }